<?xml version="1.0" encoding="UTF-8"?>
<svg version="1.1" xmlns="http://www.w3.org/2000/svg" width="360" height="360">
<path d="M 0 0 C 1.1 0 2.1 0 3.2 0 C 18.8 0.1 33.4 0.8 48.4 5.5 C 49.3 5.7 50.1 6 51 6.2 C 60.1 9 68.9 12.3 77.4 16.5 C 79 17.3 79 17.3 80.7 18 C 98.3 26.4 113.2 38.2 127.4 51.5 C 128.5 52.5 128.5 52.5 129.7 53.6 C 136.3 60 142 67.1 147.4 74.5 C 147.9 75.1 148.3 75.6 148.7 76.2 C 161.8 94.2 170.2 114.3 176.4 135.5 C 176.7 136.4 177 137.2 177.2 138.1 C 179.5 146.3 179.9 154.1 179.9 162.6 C 179.9 164 179.9 165.4 179.9 166.9 C 179.9 169.8 179.9 172.8 179.9 175.8 C 179.9 179.5 179.9 183.3 179.9 187.1 C 179.9 190 179.9 193 179.9 195.9 C 179.9 197.3 179.9 198.7 180 200.1 C 180 210.3 178.5 218.8 175.4 228.5 C 175.2 229.4 174.9 230.3 174.6 231.3 C 173.9 233.5 173.2 235.6 172.5 237.8 C 172.2 238.5 172 239.3 171.7 240.1 C 169.6 246.1 167.3 251.8 164.4 257.5 C 164.1 258.2 163.8 258.9 163.4 259.6 C 143.1 300.4 108.7 333.2 65.9 349.8 C 64.7 350.2 64.7 350.2 63.5 350.7 C 49.5 355.9 37.1 358.1 22.2 358.1 C 20.5 358.1 18.8 358.1 17 358.1 C 13.5 358.1 9.9 358.1 6.3 358.1 C 2.6 358.1 -1 358.1 -4.6 358.2 C -43.4 358.6 -43.4 358.6 -60.6 351.5 C -61.3 351.2 -62 350.9 -62.8 350.6 C -67.5 348.8 -72 346.7 -76.6 344.5 C -77.7 343.9 -77.7 343.9 -78.9 343.4 C -105.8 330.1 -128.8 310.8 -146.6 286.5 C -147 285.9 -147.4 285.4 -147.8 284.8 C -158.3 270.3 -166.2 254.3 -172 237.4 C -172.3 236.6 -172.6 235.7 -172.9 234.8 C -178.4 217.9 -180.2 201.2 -180.1 183.6 C -180.1 180.5 -180.1 177.4 -180.1 174.4 C -180.1 157.5 -178.1 140.9 -172.4 124.9 C -172.1 124.1 -171.8 123.2 -171.5 122.4 C -161.9 95.3 -147.3 73.2 -127.6 52.5 C -126.9 51.8 -126.3 51.1 -125.6 50.4 C -93.2 16.4 -46.1 -0.2 0 0 Z M -60.6 78.5 C -67.5 87.2 -70.4 96.7 -72.6 107.5 C -83 108 -83 108 -93.6 108.5 C -94.8 114.2 -96 119.7 -96.7 125.5 C -96.8 126.7 -96.8 126.7 -97 127.8 C -97.3 130.3 -97.6 132.8 -97.9 135.3 C -98.1 137 -98.3 138.8 -98.5 140.6 C -99 144.4 -99.5 148.1 -100 151.9 C -101.1 160.7 -102.2 169.6 -103.3 178.4 C -103.5 180.4 -103.8 182.4 -104 184.4 C -105.7 197.5 -107.3 210.5 -109.1 223.6 C -109.2 224.3 -109.3 225.1 -109.4 225.8 C -110.3 233.1 -111.3 240.4 -112.3 247.7 C -112.6 250 -112.9 252.3 -113.2 254.6 C -113.3 255.7 -113.5 256.7 -113.6 257.7 C -114.2 262.4 -114.7 266.8 -114.6 271.5 C -113.6 271.5 -113.6 271.5 -112.7 271.5 C -59.9 272.2 -59.9 272.2 -41 273.8 C -32.5 274.6 -24.1 274.7 -15.6 274.5 C -15.6 273.5 -15.6 272.5 -15.6 271.5 C 28.7 271.5 72.9 271.5 118.4 271.5 C 117.9 262.8 117.3 254.3 116.2 245.6 C 116.1 244.6 116 243.7 115.8 242.7 C 115.5 239.5 115.1 236.3 114.7 233.1 C 114.4 230.8 114.1 228.5 113.8 226.2 C 113.1 220.2 112.4 214.2 111.6 208.3 C 110.9 202.3 110.2 196.4 109.4 190.4 C 108.3 181.2 107.2 171.9 106.1 162.7 C 104.5 150.3 103 137.9 101.5 125.6 C 101.4 124.2 101.4 124.2 101.2 122.9 C 100.6 118.1 100 113.3 99.4 108.5 C 98.9 108.5 98.3 108.4 97.7 108.4 C 95.1 108.3 92.6 108.2 90 108.1 C 89.1 108 88.2 108 87.3 107.9 C 86.4 107.9 85.6 107.9 84.7 107.8 C 83.9 107.8 83.1 107.7 82.3 107.7 C 80.4 107.5 80.4 107.5 79.4 106.5 C 79.1 105 78.9 103.5 78.6 102.1 C 76.7 92.3 73 85 66.4 77.5 C 65.6 76.6 65.6 76.6 64.8 75.6 C 56 66.1 44.4 61.3 31.6 60.2 C 23.4 60 16.3 61.2 8.4 63.5 C 3 64.8 -0.3 64.3 -5.4 62.3 C -25.1 55.2 -46.9 63.8 -60.6 78.5 Z" fill="#818181" transform="matrix(1,0,0,1,179.6,-0.5)"/>
<path d="M 0 0 C 9 9.7 13.3 20.8 13.3 33.8 C 19.5 33.8 25.8 33.8 32.3 33.8 C 33.9 37.1 34.5 38.6 35 42 C 35.1 42.9 35.2 43.7 35.3 44.6 C 35.4 45.5 35.5 46.4 35.6 47.3 C 35.8 48.8 35.8 48.8 36 50.2 C 36.3 53.5 36.7 56.7 37.1 59.9 C 37.4 62.1 37.7 64.4 37.9 66.7 C 38.7 72.7 39.4 78.7 40.1 84.7 C 40.8 90.7 41.6 96.6 42.3 102.5 C 43.6 113 44.8 123.4 46.1 133.8 C 46.8 140.4 47.6 147 48.4 153.6 C 48.9 157.6 49.4 161.7 49.9 165.7 C 50.1 167.6 50.3 169.4 50.6 171.3 C 50.9 173.9 51.2 176.4 51.5 179 C 51.6 179.7 51.7 180.5 51.8 181.2 C 52.2 184.7 52.2 187.4 51.3 190.8 C 33.4 190.9 15.5 190.9 -2.4 191 C -10.7 191 -19 191 -27.3 191 C -98.9 191.3 -98.9 191.3 -127.8 187.8 C -127.1 180.8 -126.4 173.8 -125.5 166.8 C -125.3 165.4 -125.3 165.4 -125.2 164 C -124.8 160.9 -124.4 157.8 -124 154.8 C -123.7 152.6 -123.4 150.4 -123.2 148.2 C -122.6 143.6 -122 139.1 -121.4 134.5 C -120.7 128.7 -119.9 123 -119.2 117.3 C -117.8 106.2 -116.4 95.2 -114.9 84.1 C -114.2 78.1 -113.4 72 -112.6 66 C -112.2 62.4 -111.7 58.8 -111.3 55.2 C -111.1 53.6 -110.9 51.9 -110.7 50.3 C -110.4 48 -110.1 45.8 -109.8 43.6 C -109.6 41.7 -109.6 41.7 -109.3 39.8 C -108.8 36.8 -108.8 36.8 -106.8 33.8 C -104.6 33.5 -104.6 33.5 -102 33.5 C -101 33.5 -100.1 33.5 -99.1 33.5 C -98.1 33.6 -97.1 33.6 -96.1 33.6 C -94.6 33.6 -94.6 33.6 -93.1 33.7 C -90.7 33.7 -88.2 33.8 -85.8 33.8 C -85.8 32.8 -85.8 31.8 -85.9 30.7 C -85.6 21 -81.7 12.4 -75.8 4.8 C -75.2 4.1 -74.7 3.4 -74.2 2.7 C -66.3 -7.1 -55 -12.5 -42.9 -15 C -26.6 -16.3 -12 -11 0 0 Z M -65.8 9.8 C -71.7 17.5 -73.8 24.1 -73.8 33.8 C -49 33.8 -24.3 33.8 1.3 33.8 C -0.2 21.2 -3.1 13.3 -12.8 4.8 C -29.3 -6.3 -52 -5.6 -65.8 9.8 Z M -76.7 50.9 C -78.4 54 -78.8 56.3 -78.8 59.8 C -76.3 63.3 -74.9 64.6 -70.7 65.4 C -67.7 65 -67.7 65 -65.4 63.3 C -62.9 59.6 -63.3 57.2 -63.8 52.8 C -64.6 50.6 -64.6 50.6 -66.8 49.8 C -70.3 49.3 -73.5 49.1 -76.7 50.9 Z M -14.8 52.8 C -15.4 55.9 -15.3 58.7 -14.8 61.8 C -12.6 64.5 -11.2 64.7 -7.8 65.3 C -4.6 65 -4.6 65 -1.8 62.8 C 0.6 59.9 0.6 59.9 0.3 56.2 C -0.8 52.2 -0.8 52.2 -3.8 49.8 C -8.3 49.1 -11.8 48.8 -14.8 52.8 Z" fill="#686868" transform="matrix(1,0,0,1,195.8,77.2)"/>
<path d="M 0 0 C 1.6 0 1.6 0 3.3 0 C 4.1 0 4.9 0.1 5.8 0.1 C 5.8 4.7 4.6 6.5 2.4 10.6 C -0.5 16.2 -2.4 21.6 -3.7 27.8 C -4.3 30.1 -4.3 30.1 -5.3 31.1 C -7.3 31.2 -9.4 31.2 -11.4 31.2 C -12.7 31.2 -13.9 31.2 -15.2 31.2 C -15.9 31.2 -16.6 31.2 -17.2 31.2 C -19.2 31.2 -21.2 31.2 -23.3 31.2 C -24.5 31.2 -25.8 31.2 -27.1 31.2 C -28.2 31.2 -29.4 31.2 -30.6 31.2 C -33.3 31.1 -33.3 31.1 -34.3 30.1 C -33.9 20 -28.7 13.9 -21.7 7 C -15.3 1.8 -8.1 -0.1 0 0 Z" fill="rgba(0, 0, 0, 0)" transform="matrix(1,0,0,1,159.3,76.9)"/>
<path d="M 0 0 C 11.2 -0.7 19.7 0.8 28.4 8.3 C 32.4 12.1 35.5 16.1 38 21 C 38.4 21.7 38.7 22.4 39.1 23.1 C 40.2 25.5 40.2 27.4 40 30 C 39 31 39 31 36.3 31.1 C 35.1 31.1 34 31.1 32.8 31.1 C 31.5 31.1 30.3 31.1 29 31.1 C 27.6 31.1 26.3 31.1 24.9 31.1 C 23.6 31.1 22.2 31.1 20.9 31 C 17.6 31 14.3 31 11 31 C 10.7 30 10.4 28.9 10.1 27.9 C 7.7 19.4 5.5 11.9 0.1 4.8 C -0.3 4.2 -0.6 3.6 -1 3 C -0.7 2 -0.3 1 0 0 Z" fill="rgba(0, 0, 0, 0)" transform="translate(201,77)"/>
<path d="M 0 0 C 5.2 2.1 7.5 6.2 10 11 C 11 14 11.8 16.9 12 20 C 11 21 11 21 9.1 21.1 C 8.2 21.1 7.4 21.1 6.5 21.1 C 5.6 21.1 4.7 21.1 3.8 21.1 C 2.9 21.1 1.9 21.1 0.9 21.1 C 0 21.1 -1 21.1 -1.9 21 C -4.3 21 -6.6 21 -9 21 C -10.6 15.6 -8.5 11.8 -6 7 C -4.1 4.4 -2.2 2.3 0 0 Z" fill="rgba(0, 0, 0, 0)" transform="translate(182,87)"/>
<path d="M 0 0 C 0.6 0.2 1.2 0.4 1.8 0.6 C 1.5 1.9 1.2 3.3 0.8 4.6 C 2.1 4.6 3.5 4.6 4.8 4.6 C 4.5 6.3 4.2 7.9 3.8 9.6 C 0.4 9.8 0.4 9.8 -3.2 9.6 C -5.2 7.6 -5.2 7.6 -5.5 4.6 C -5.4 3.6 -5.3 2.6 -5.2 1.6 C -2.2 -0.4 -2.2 -0.4 0 0 Z" fill="#101010" transform="translate(188.2,129.4)"/>
<path d="M 0 0 C 2.4 0.8 2.4 0.8 4.4 2.8 C 4.1 5.4 4.1 5.4 3.4 7.8 C 0.8 7.8 -1.8 7.8 -4.6 7.8 C -5.3 5.5 -5.3 5.5 -5.6 2.8 C -3.9 0.1 -3.2 -0.2 0 0 Z" fill="#101010" transform="translate(125.6,129.2)"/>
</svg>
